<?xml version="1.0" encoding="UTF-8" standalone="no"?>
<!DOCTYPE svg PUBLIC "-//W3C//DTD SVG 1.1//EN" "http://www.w3.org/Graphics/SVG/1.1/DTD/svg11.dtd">
<svg width="100%" height="100%" viewBox="0 0 240 240" version="1.1" xmlns="http://www.w3.org/2000/svg" xmlns:xlink="http://www.w3.org/1999/xlink" xml:space="preserve" xmlns:serif="http://www.serif.com/" style="fill-rule:evenodd;clip-rule:evenodd;stroke-linejoin:round;stroke-miterlimit:2;">
    <g id="cat">
        <g id="ears">
            <path id="right-ear" serif:id="right ear" d="M181.604,16.013C178.335,10.512 171.731,8.87 166.983,10.628C156.528,14.48 148,25.38 139.64,43.652L197.221,67.907C193.966,48.107 189.464,29.907 181.604,16.013Z" style="fill:rgb(148,173,224);"/>
            <g>
                <clipPath id="_clip1">
                    <path d="M181.604,16.013C178.335,10.512 171.731,8.87 166.983,10.628C156.528,14.48 148,25.38 139.64,43.652L197.221,67.907C193.966,48.107 189.464,29.907 181.604,16.013Z"/>
                </clipPath>
                <g clip-path="url(#_clip1)">
                    <path d="M198.639,70.426C213.244,53.741 188.504,0.802 166.466,7.428C153.477,11.11 145.281,26.592 139.875,42.879L153.035,47.152C153.94,47.518 155.422,47.74 155.907,46.356C159.82,33.784 165.62,24.726 173.529,19.594C176.774,18.71 179.188,20.755 180.897,25.285C184.932,38.172 186.109,45.796 186.404,51.799L187.418,66.775L198.639,70.426Z" style="fill:rgb(52,30,68);"/>
                </g>
            </g>
            <path id="left-ear" serif:id="left ear" d="M87.689,45.356C70.202,22.402 54.407,12.065 42.626,18.631C28.491,33.612 28.121,63.094 31.739,94.408L60.218,66.813L81.398,49.998C84.915,50.591 87.463,48.42 87.689,45.356Z" style="fill:rgb(146,162,213);"/>
            <g>
                <clipPath id="_clip2">
                    <path d="M87.689,45.356C70.202,22.402 54.407,12.065 42.626,18.631C28.491,33.612 28.121,63.094 31.739,94.408L60.218,66.813L81.398,49.998C84.915,50.591 87.463,48.42 87.689,45.356Z"/>
                </clipPath>
                <g clip-path="url(#_clip2)">
                    <path d="M83.565,25.15L41.247,12.107C25.504,40.349 17.709,66.781 29.219,98.093L45.064,79.969C45.352,62.36 46.126,46.791 47.492,33.707C48.571,27.531 51.089,25.182 55.243,27.187C62.042,32.463 68.14,39.013 76.311,48.216C78.034,49.534 80.849,50.232 83.202,50.018C87.395,49.283 87.523,47.177 87.615,45.512L83.565,25.15Z" style="fill:rgb(49,23,70);"/>
                </g>
            </g>
        </g>
        <g id="head" transform="matrix(1,0,0,1,16.1664,-10.2357)">
            <path d="M180.988,77.621C109.814,32.995 55.113,43.405 15.586,104.514C17.625,163.949 17.128,235.745 29.255,253.482L203.63,250.592C193.71,231.103 197.493,201.711 180.988,77.621Z" style="fill:url(#_Linear3);"/>
        </g>
        <g id="bear">
            <g id="right">
                <g transform="matrix(0.854502,0.406043,-0.42919,0.903214,60.8344,-7.87123)">
                    <path d="M239.866,61.155C229.897,61.951 220.522,63.35 211.846,65.158C201.569,67.299 192.174,70.077 182.562,74.008C182.233,74.454 182.628,74.756 183.654,74.473C196.178,69.637 209.118,65.513 239.866,61.155Z" style="fill:rgb(131,136,158);"/>
                </g>
                <g transform="matrix(1.0676,0.295323,-0.266611,0.963804,0.950341,-6.50808)">
                    <path d="M239.866,61.155C229.897,61.951 220.522,63.35 211.846,65.158C201.569,67.299 192.174,70.077 182.562,74.008C182.233,74.454 182.628,74.756 183.654,74.473C196.178,69.637 209.118,65.513 239.866,61.155Z" style="fill:rgb(120,130,165);"/>
                </g>
                <g transform="matrix(0.973428,0.228992,-0.228992,0.973428,22.3964,-18.0889)">
                    <path d="M239.866,61.155C229.897,61.951 220.522,63.35 211.846,65.158C201.569,67.299 192.174,70.077 182.562,74.008C182.233,74.454 182.628,74.756 183.654,74.473C196.178,69.637 209.118,65.513 239.866,61.155Z" style="fill:rgb(118,126,149);"/>
                </g>
                <g transform="matrix(0.994633,0.10347,-0.10347,0.994633,8.89736,-4.26857)">
                    <path d="M239.866,61.155C229.897,61.951 220.522,63.35 211.846,65.158C201.569,67.299 192.174,70.077 182.562,74.008C182.233,74.454 182.628,74.756 183.654,74.473C196.178,69.637 209.118,65.513 239.866,61.155Z" style="fill:rgb(111,119,155);"/>
                </g>
                <g transform="matrix(1,0,0,1,-0.48807,0.573077)">
                    <path d="M239.457,62.888C215.462,64.931 191.528,68.59 179.561,75.217C179.251,76.099 180.498,76.525 181.197,76.188C192.074,69.872 208.709,67.245 239.457,62.888Z" style="fill:rgb(85,89,114);"/>
                </g>
            </g>
            <g id="left">
                <g transform="matrix(1,0,0,1,1.52948,0.100592)">
                    <path d="M71.467,140.608C46.512,147.57 22.742,155.882 -0.118,165.916C24.017,156.97 47.805,149.145 71.17,142.689C73.709,141.174 72.332,140.557 71.467,140.608Z" style="fill:rgb(66,77,123);"/>
                </g>
                <g transform="matrix(0.99637,0.0851325,-0.0776816,0.909167,10.8729,-10.3261)">
                    <path d="M71.467,140.608C46.512,147.57 22.742,155.882 -0.118,165.916C24.017,156.97 47.805,149.145 71.17,142.689C73.709,141.174 72.332,140.557 71.467,140.608Z" style="fill:rgb(57,74,126);"/>
                </g>
                <g transform="matrix(0.93641,0.118373,-0.0991583,0.78441,8.00261,-7.94858)">
                    <path d="M71.467,140.608C46.512,147.57 22.742,155.882 -0.118,165.916C24.017,156.97 47.805,149.145 71.17,142.689C73.709,141.174 72.332,140.557 71.467,140.608Z" style="fill:rgb(113,125,165);"/>
                </g>
                <g transform="matrix(0.824699,0.0838524,-0.0475662,0.46782,3.55362,25.6472)">
                    <path d="M71.467,140.608C46.406,145.736 22.647,154.228 -0.118,165.916C23.89,156.062 47.657,148.083 71.17,142.689C73.709,141.174 72.332,140.557 71.467,140.608Z" style="fill:rgb(121,131,166);"/>
                </g>
            </g>
        </g>
        <g id="face" transform="matrix(1,0,0,1,16.1664,-10.2357)">
            <g id="face1" serif:id="face" transform="matrix(1,0,0,1,-16.1664,10.2357)">
                <path d="M153.056,50.498C123.546,40.378 92.261,44.857 70.431,59.394C51.33,73.552 38.869,92.733 47.81,117.577C60.823,136.685 86.431,148.031 136.509,144.294C161.69,139.12 186.77,121.608 193.332,102.089C196.785,81.822 186.602,62.909 153.056,50.498Z" style="fill:rgb(68,48,97);"/>
            </g>
            <g id="left1" serif:id="left" transform="matrix(1.6214,0,0,2.04009,-63.6404,-101.091)">
                <path d="M85.581,87.211C93.261,87.211 99.813,90.72 100.374,96.579C101.019,103.315 92.843,108.664 84.763,108.146C76.594,107.623 70.71,103.483 71.398,97.583C72.079,91.737 77.901,87.211 85.581,87.211Z" style="fill:rgb(28,9,42);"/>
            </g>
            <g id="right1" serif:id="right" transform="matrix(1,0,0,1.4948,-17.6275,-15.746)">
                <path d="M160.42,55.187C171.314,55.187 182.343,59.965 183.132,66.866C183.987,74.344 174.941,81.021 163.397,80.616C152.51,80.234 140.812,73.848 140.812,66.902C140.812,59.957 149.527,55.187 160.42,55.187Z" style="fill:rgb(38,15,49);"/>
            </g>
            <g id="nose" transform="matrix(1,0,0,1,-16.1664,10.2357)">
                <path d="M145.483,80.164C132.669,80.105 120.256,82.077 111.877,85.559C112.209,85.912 112.328,86.66 112.694,87.006C117.49,91.536 122.995,94.104 130.178,97.963C131.723,98.811 132.362,100.45 132.515,102.51L132.481,144.266C131.377,149.352 131.43,156.068 131.695,158.701C134.542,153.667 136.266,148.719 137.643,143.797L137.498,108.831L148.822,146.589C149.898,150.78 151.841,152.055 154.022,152.527C154.251,151.029 154.176,149.555 154.01,148.088L138.757,102.76C138.044,100.735 138.101,98.93 139.406,97.481C143.593,91.961 147.03,86.877 149.482,82.365L145.483,80.164Z" style="fill:rgb(24,6,32);"/>
                <g>
                    <clipPath id="_clip4">
                        <path d="M145.483,80.164C132.669,80.105 120.256,82.077 111.877,85.559C112.209,85.912 112.328,86.66 112.694,87.006C117.49,91.536 122.995,94.104 130.178,97.963C131.723,98.811 132.362,100.45 132.515,102.51L132.481,144.266C131.377,149.352 131.43,156.068 131.695,158.701C134.542,153.667 136.266,148.719 137.643,143.797L137.498,108.831L148.822,146.589C149.898,150.78 151.841,152.055 154.022,152.527C154.251,151.029 154.176,149.555 154.01,148.088L138.757,102.76C138.044,100.735 138.101,98.93 139.406,97.481C143.593,91.961 147.03,86.877 149.482,82.365L145.483,80.164Z"/>
                    </clipPath>
                    <g clip-path="url(#_clip4)">
                        <g transform="matrix(3.07859,0,0,0.970462,-266.457,3.52496)">
                            <path d="M131.944,143.948C130.864,145.561 129.77,145.476 128.676,144.728L128.613,159.536L130.168,161.7L131.944,143.948Z" style="fill:rgb(82,97,154);"/>
                        </g>
                        <g transform="matrix(1,0,0,1,-0.35891,-2.43485)">
                            <path d="M152.517,143.298C152.094,143.487 153.664,149.667 152.743,149.824C151.524,150.03 148.11,144.416 147.431,143.479L144.146,158.731L158.337,158.731L152.517,143.298Z" style="fill:rgb(82,100,150);"/>
                        </g>
                    </g>
                </g>
            </g>
            <g id="left-eye" serif:id="left eye" transform="matrix(1.31136,0,0,1.56106,-51.1509,-51.2497)">
                <path d="M97.354,79.179C107.112,78.958 113.929,84.474 114.017,91.796C114.099,98.626 106.822,103.869 97.354,104.413C87.91,104.956 80.108,99.423 80.69,91.796C81.224,84.787 88.455,79.38 97.354,79.179Z" style="fill:rgb(226,212,201);"/>
                <g>
                    <clipPath id="_clip5">
                        <path d="M97.354,79.179C107.112,78.958 113.929,84.474 114.017,91.796C114.099,98.626 106.822,103.869 97.354,104.413C87.91,104.956 80.108,99.423 80.69,91.796C81.224,84.787 88.455,79.38 97.354,79.179Z"/>
                    </clipPath>
                    <g clip-path="url(#_clip5)">
                        <g transform="matrix(1.21215,0,0,0.942574,-22.8022,6.14773)">
                            <path d="M101.833,84.61C104.334,85.336 106.389,87.596 106.389,90.468C106.389,93.341 104.517,95.409 101.912,95.409C99.308,95.409 96.751,92.785 96.425,89.931C96.006,86.259 98.76,83.718 101.833,84.61Z" style="fill:rgb(27,10,46);"/>
                        </g>
                    </g>
                </g>
            </g>
            <g id="right-eye" serif:id="right eye" transform="matrix(1.40178,0,0,1.36785,-82.1025,-29.9245)">
                <path d="M159.967,66.664C168.173,67.147 174.869,73.367 174.539,80.754C174.201,88.333 168.593,93.713 160.531,93.267C153.098,92.855 146.354,86.797 145.835,79.853C145.257,72.121 152.055,66.198 159.967,66.664Z" style="fill:rgb(241,225,212);"/>
                <g>
                    <clipPath id="_clip6">
                        <path d="M159.967,66.664C168.173,67.147 174.869,73.367 174.539,80.754C174.201,88.333 168.593,93.713 160.531,93.267C153.098,92.855 146.354,86.797 145.835,79.853C145.257,72.121 152.055,66.198 159.967,66.664Z"/>
                    </clipPath>
                    <g clip-path="url(#_clip6)">
                        <g transform="matrix(1.25066,0,0,1.06499,-41.3397,3.32284)">
                            <path d="M160.598,65.581C162.534,66.072 164.221,67.885 164.431,70.522C164.646,73.238 163.791,75.133 161.666,75.396C159.435,75.672 157.326,74.37 156.49,71.662C155.513,68.498 157.235,64.729 160.598,65.581Z" style="fill:rgb(26,13,33);"/>
                        </g>
                    </g>
                </g>
            </g>
        </g>
    </g>
    <defs>
        <linearGradient id="_Linear3" x1="0" y1="0" x2="1" y2="0" gradientUnits="userSpaceOnUse" gradientTransform="matrix(123.142,-0.695889,0.695889,123.142,47.7007,203.768)"><stop offset="0" style="stop-color:rgb(147,160,212);stop-opacity:1"/><stop offset="1" style="stop-color:rgb(148,175,225);stop-opacity:1"/></linearGradient>
    </defs>
</svg>
