<?xml version="1.0" encoding="UTF-8" standalone="no"?>
<!DOCTYPE svg PUBLIC "-//W3C//DTD SVG 1.1//EN" "http://www.w3.org/Graphics/SVG/1.1/DTD/svg11.dtd">
<svg width="100%" height="100%" viewBox="0 0 748 748" version="1.1" xmlns="http://www.w3.org/2000/svg" xmlns:xlink="http://www.w3.org/1999/xlink" xml:space="preserve" xmlns:serif="http://www.serif.com/" style="fill-rule:evenodd;clip-rule:evenodd;stroke-linejoin:round;stroke-miterlimit:2;">
    <g id="画板1" transform="matrix(1,0,0,1,-58.2362,834.676)">
        <rect x="58.236" y="-834.676" width="747.706" height="747.706" style="fill:rgb(3,165,221);"/>
        <g transform="matrix(0.816805,0,0,0.816805,144.09,-723.967)">
            <g transform="matrix(1,0,0,1,-81.148,-204.784)">
                <path d="M723.73,424.28C721.79,342.97 651.13,327.48 651.13,327.48C651.13,327.48 596,327 524.19,326.67L576.19,276.22C576.19,276.22 584.58,265.9 570.38,254.28C556.18,242.66 555.38,247.83 550.64,251.06C546.29,253.99 483.88,315.44 472.72,326.44C438.3,326.3 402.34,326.2 368.25,326.19L396.25,326.19C396.25,326.19 321.4,252.35 316.62,249.12C311.84,245.89 311.07,240.73 296.88,252.35C282.69,263.97 291.07,274.29 291.07,274.29L344.63,326.19L347.63,326.19C288.23,326.24 237.03,326.58 213.55,327.48C138.05,348.78 143.86,424.28 143.86,424.28C143.86,424.28 144.86,585.92 143.75,667.72C151.88,749.51 215,762.58 215,762.58C215,762.58 240.17,763.06 258.56,763.06C260.5,768.39 261.95,794.06 290.5,794.06C319.05,794.06 322.45,763.06 322.45,763.06C322.45,763.06 531.53,762.06 548.95,762.06C549.95,770.78 554.28,794.49 582.83,794.01C611.38,793.53 613.32,760.13 613.32,760.13C613.32,760.13 623,759.13 652.04,760.13C719.8,747.54 723.67,668.13 723.67,668.13C723.67,668.13 722.76,505.58 723.73,424.28ZM665.43,683.05C665.43,695.88 655.27,706.28 642.74,706.28L230.61,706.28C218.08,706.28 207.92,695.88 207.92,683.05L207.92,410.05C207.92,397.22 218.08,386.82 230.61,386.82L642.74,386.82C655.27,386.82 665.43,397.22 665.43,410.05L665.43,683.05Z" style="fill:white;fill-rule:nonzero;"/>
            </g>
            <g transform="matrix(1,0,0,1,62.662,40.366)">
                <path d="M107.5,242.02L228.49,218.79L237.69,264.29L117.66,287.52L107.5,242.02Z" style="fill:white;fill-rule:nonzero;"/>
            </g>
            <g transform="matrix(1,0,0,1,62.662,40.366)">
                <path d="M484.03,242.02L363.04,218.79L353.84,264.29L473.87,287.52L484.03,242.02Z" style="fill:white;fill-rule:nonzero;"/>
            </g>
            <g transform="matrix(1,0,0,1,-81.148,-204.784)">
                <path d="M381.5,599.93C381.5,599.93 408.12,647.85 437.64,584.45C466.2,646.4 497.64,600.87 497.64,600.87L515.54,612.52C515.54,612.52 482.15,666.24 438.11,625.58C400.84,666.24 361.64,612.58 361.64,612.58L381.5,599.93Z" style="fill:white;fill-rule:nonzero;"/>
            </g>
        </g>
    </g>
</svg>
