<svg viewBox="0 0 23 23" xmlns="http://www.w3.org/2000/svg" fill-rule="evenodd" clip-rule="evenodd" stroke-linejoin="round" stroke-miterlimit="2"><g transform="matrix(3.27539 0 0 4.61476 60.298 31.964)"><path fill="none" d="M-18.409-6.926h7.022v4.984h-7.022z"/><clipPath id="a"><path d="M-18.409-6.926h7.022v4.984h-7.022z"/></clipPath><g clip-path="url(#a)"><path d="M-12.548-6.926h-4.701c-.642 0-1.16.368-1.16.823v3.337c0 .455.518.824 1.16.824h4.701c.641 0 1.16-.369 1.16-.824v-3.337c0-.455-.519-.823-1.16-.823zm-1.496 4.377c-.152.022-.213 0-.275-.043-.06-.044-.091-.087-.091-.152v-.499c0-.173-.092-.238-.122-.26-.03-.021-.061-.065-.03-.108.03-.043.06-.065.121-.065.55-.043 1.038-.173 1.038-.802a.464.464 0 00-.213-.411c-.061-.044-.061-.087-.061-.13.03-.044.091-.174 0-.347-.092 0-.245.043-.52.173-.03.022-.091.022-.122.022a2.72 2.72 0 00-.61-.065 2.72 2.72 0 00-.61.065c-.031 0-.092 0-.123-.022-.214-.108-.397-.151-.488-.151-.061.173 0 .303 0 .346.03.022.03.065 0 .087a.49.49 0 00-.214.412c0 .628.519.758 1.038.801.092 0 .153.065.122.109 0 .065-.092.086-.153.086-.55-.043-1.312-.195-1.312-.996 0-.195.091-.369.244-.52-.061-.087-.092-.26.03-.477l.092-.065c.061-.022.305-.044.763.173.183-.043.397-.043.61-.043.215 0 .428.021.611.043.489-.217.733-.195.764-.173.03 0 .06.021.091.065.122.217.092.39.061.498.153.152.245.325.245.52 0 .694-.55.91-1.069.975.03.065.061.174.061.26v.477c.977-.238 1.618-.888 1.618-1.625 0-.953-1.068-1.712-2.412-1.712-1.343 0-2.412.78-2.412 1.712 0 .737.672 1.408 1.65 1.625-.031-.021-.031-.238-.031-.39h-.123c-.458 0-.702-.217-.763-.347-.03-.065.03-.108.092-.13a.167.167 0 01.183.065c0 .022.153.26.702.174a.15.15 0 01.183.086v.542c0 .065-.03.109-.091.152a.327.327 0 01-.183.043h-.062c-1.13-.26-1.862-.997-1.862-1.842 0-1.062 1.221-1.928 2.717-1.928s2.718.866 2.718 1.928c.06.867-.703 1.582-1.802 1.864z" fill-rule="nonzero"/><path d="M-18.41-6.925h1.574v.91h-1.574zM-12.962-6.926h1.574v.91h-1.574zM-12.96-2.853h1.573v.91h-1.574zM-18.409-2.853h1.574v.91h-1.574z"/></g></g></svg>
