<svg xmlns="http://www.w3.org/2000/svg" viewBox="0 0 104 104" width="2500" height="2500"><path d="M0 0h104v104H0z" fill="#e84c88"/><path d="M52 88.6c-20.1 0-36.6-16.4-36.6-36.6S31.9 15.4 52 15.4 88.6 31.9 88.6 52 72.2 88.6 52 88.6zM82.9 57c-1.1-.3-9.8-2.9-19.5-1.3 4 11.3 5.7 20.3 6 22.3 7.1-4.9 12-12.3 13.5-21zM64.2 80.8c-.5-2.8-2.3-12.4-6.7-23.8h-.2c-17.5 6.2-23.9 18.4-24.5 19.5 5.4 4.1 12 6.7 19.2 6.7 4.4 0 8.5-.8 12.2-2.4zM28.8 73c.6-1.1 9.3-15.4 25.4-20.6.5-.2.8-.3 1.3-.3-.8-1.8-1.6-3.6-2.6-5.4-15.6 4.7-30.7 4.5-32.2 4.4v1c.1 8 3 15.3 8.1 20.9zm-7.4-27.3c1.5 0 14.3 0 28.9-3.7-5.2-9.3-10.7-16.9-11.5-18-8.9 4-15.4 11.9-17.4 21.7zm23.3-23.9c.8 1.1 6.5 8.9 11.7 18.2 11-4.2 15.8-10.4 16.4-11.2C67.3 23.9 60 21 52.2 21c-2.8-.2-5.2.1-7.5.8zm31.5 10.5c-.7.8-5.8 7.6-17.4 12.4.7 1.5 1.5 2.9 2.1 4.5.2.5.5 1.1.7 1.6 10.4-1.3 20.8.8 21.8 1-.2-7.4-2.8-14.1-7.2-19.5z" fill="#fff"/></svg>
