<?xml version="1.0" encoding="UTF-8" standalone="no"?><!DOCTYPE svg PUBLIC "-//W3C//DTD SVG 1.1//EN" "http://www.w3.org/Graphics/SVG/1.1/DTD/svg11.dtd"><svg width="100%" height="100%" viewBox="0 0 256 256" version="1.1" xmlns="http://www.w3.org/2000/svg" xmlns:xlink="http://www.w3.org/1999/xlink" xml:space="preserve" xmlns:serif="http://www.serif.com/" style="fill-rule:evenodd;clip-rule:evenodd;stroke-linecap:round;stroke-linejoin:round;stroke-miterlimit:1.5;"><rect x="0" y="0" width="256" height="256" style="fill:none;"/><g id="图层1"><path d="M117.605,87.436l-53.959,86.406" style="fill:none;stroke:#000;stroke-width:9.89px;"/><path d="M191.667,173.228l-127.005,1.011" style="fill:none;stroke:#000;stroke-width:9.37px;"/><path d="M150.225,106.923l42.129,65.933" style="fill:none;stroke:#000;stroke-width:9.89px;"/><path d="M150.225,106.923l-23.966,38.483" style="fill:none;stroke:#000;stroke-width:9.89px;"/><path d="M118.112,88.243l11.692,18.225" style="fill:none;stroke:#000;stroke-width:9.89px;"/><path d="M181.14,84.761c6.014,0 10.896,4.883 10.896,10.897c0,6.013 -4.882,10.896 -10.896,10.896c-6.014,0 -10.896,-4.883 -10.896,-10.896c0,-6.014 4.882,-10.897 10.896,-10.897Zm0,0c6.014,0 10.896,4.883 10.896,10.897c0,6.013 -4.882,10.896 -10.896,10.896c-6.014,0 -10.896,-4.883 -10.896,-10.896c0,-6.014 4.882,-10.897 10.896,-10.897Z" style="stroke:#000;stroke-width:7.89px;"/></g></svg>