<svg viewBox="0 0 32 32" xmlns="http://www.w3.org/2000/svg" fill-rule="evenodd" clip-rule="evenodd" stroke-linejoin="round" stroke-miterlimit="2"><path fill="#e02f2f" d="M-.044-.003h32.016v32.016H-.044z"/><path d="M24.002 12.466c0 4.658-2.59 8.139-6.407 8.139-1.283 0-2.488-.693-2.901-1.481 0 0-.69 2.736-.835 3.264-.514 1.866-2.027 3.733-2.144 3.886-.082.106-.263.073-.282-.068-.033-.238-.418-2.592.036-4.513l1.527-6.471s-.379-.758-.379-1.879c0-1.76 1.02-3.074 2.29-3.074 1.08 0 1.601.81 1.601 1.782 0 1.086-.691 2.71-1.048 4.214-.298 1.26.632 2.288 1.874 2.288 2.25 0 3.765-2.89 3.765-6.314 0-2.602-1.752-4.551-4.941-4.551-3.601 0-5.846 2.686-5.846 5.687 0 1.035.306 1.765.784 2.329.219.26.25.364.17.662-.058.219-.187.744-.243.953-.079.301-.323.408-.594.297-1.659-.677-2.432-2.495-2.432-4.537 0-3.373 2.845-7.418 8.487-7.418 4.535.002 7.518 3.282 7.518 6.805z" fill="#fff" fill-rule="nonzero"/></svg>
