<?xml version="1.0" encoding="UTF-8" standalone="no"?><!DOCTYPE svg PUBLIC "-//W3C//DTD SVG 1.1//EN" "http://www.w3.org/Graphics/SVG/1.1/DTD/svg11.dtd"><svg width="100%" height="100%" viewBox="0 0 511 511" version="1.1" xmlns="http://www.w3.org/2000/svg" xmlns:xlink="http://www.w3.org/1999/xlink" xml:space="preserve" xmlns:serif="http://www.serif.com/" style="fill-rule:evenodd;clip-rule:evenodd;stroke-linejoin:round;stroke-miterlimit:2;"><rect x="0" y="0" width="510.236" height="510.236" style="fill:#182f36;"/><path d="M88.101,334.767l28.215,48.768c5.762,11.419 17.4,18.59 30.114,18.59l187.293,0l-38.872,-67.358l-206.75,0Zm334.024,0.324c-0,-6.691 -2.015,-12.996 -5.386,-18.267l-109.769,-190.77c-5.814,-11.033 -17.286,-17.943 -29.791,-17.943l-58.005,0l169.517,293.68l26.753,-46.262c5.219,-8.862 6.691,-12.777 6.691,-20.438l-0.01,-0Zm-154.893,-48.162l-75.73,-131.188l-75.781,131.188l151.511,-0Z" style="fill:#00b1f5;fill-rule:nonzero;"/></svg>