<svg viewBox="0 0 403 403" xmlns="http://www.w3.org/2000/svg" fill-rule="evenodd" clip-rule="evenodd" stroke-linejoin="round" stroke-miterlimit="2"><g transform="translate(380.582 415.599) scale(1.20721)"><path fill="none" d="M-315.257-344.263H18.041v333.298h-333.298z"/><clipPath id="a"><path d="M-315.257-344.263H18.041v333.298h-333.298z"/></clipPath><g clip-path="url(#a)"><path fill="#2aa07a" d="M-317.845-347.682H20.57V-9.267h-338.415z"/><g fill="#fff" fill-rule="nonzero"><path d="M-247.725-202.981c.94-3.745 4.496-6.71 10.57-8.811 5.856-2.026 13.798-3.17 23.604-3.403 3.088-.073 8.605-.053 13.086.056-7.56 10.576-12.01 23.53-12.01 37.524 0 2.516.144 4.998.424 7.44-4.04-1.925-7.827-3.886-11.331-5.875-8.532-4.844-14.988-9.61-19.192-14.167-4.359-4.726-6.092-9.02-5.151-12.764zm152.737 62.247c7.284-10.455 11.557-23.169 11.557-36.881 0-2.755-.173-5.469-.508-8.133 3.98 1.984 8.833 4.515 11.544 6.055 8.532 4.843 14.99 9.61 19.191 14.166 4.36 4.724 6.093 9.02 5.152 12.764-.94 3.745-4.496 6.708-10.57 8.81-5.857 2.027-13.798 3.171-23.604 3.403-4.028.096-8.292.032-12.762-.184zM-269.87-190.89c5.38 5.834 13.646 11.936 24.57 18.14 10.5 5.963 22.905 11.707 36.625 17.011 8.958 24.891 32.763 42.69 60.723 42.69 12.032 0 23.294-3.296 32.934-9.034 0 0-32.17-5.338-49.715-19.44 2.398.643 4.813 1.27 7.243 1.881 34.155 8.59 67.19 12.983 93.02 12.37 12.557-.296 22.725-1.763 30.22-4.359 7.751-2.683 12.287-6.459 13.484-11.223 1.196-4.764-1.017-10.238-6.578-16.27-5.38-5.832-13.646-11.935-24.57-18.14-8.751-4.969-21.743-10.933-33.347-15.686-6.878-28.257-32.337-49.232-62.691-49.232-18.9 0-35.9 8.13-47.7 21.087-8.636-.61-27.2-1.881-37.092-1.647-12.557.298-22.724 1.765-30.221 4.36-7.75 2.683-12.287 6.46-13.484 11.223-1.196 4.765 1.017 10.238 6.58 16.27zM-224.408-137.968c0 5.814-4.709 10.528-10.519 10.528-5.81 0-10.519-4.714-10.519-10.528 0-5.813 4.71-10.526 10.52-10.526s10.518 4.713 10.518 10.526M-60.507-209.143a6.32 6.32 0 01-6.318 6.323 6.32 6.32 0 01-6.317-6.323 6.32 6.32 0 016.317-6.322 6.32 6.32 0 016.318 6.322M-210.411-127.436a3.91 3.91 0 11-7.818 0 3.91 3.91 0 013.91-3.912 3.91 3.91 0 013.908 3.912"/></g></g></g></svg>
