<svg viewBox="0 0 748 748" xmlns="http://www.w3.org/2000/svg" fill-rule="evenodd" clip-rule="evenodd" stroke-linejoin="round" stroke-miterlimit="2"><path fill="#03a5dd" d="M0 0h747.706v747.706H0z"/><path d="M610.718 289.994c-1.585-66.414-59.3-79.066-59.3-79.066s-45.03-.392-103.685-.662l42.474-41.208s6.853-8.43-4.746-17.92c-11.599-9.492-12.252-5.269-16.124-2.63-3.553 2.393-54.53 52.585-63.645 61.57-28.115-.114-57.487-.196-85.332-.204h22.87s-61.137-60.313-65.041-62.951c-3.905-2.638-4.534-6.853-16.124 2.638s-4.746 17.92-4.746 17.92l43.748 42.393h2.45c-48.518.04-90.338.319-109.517 1.054-61.668 17.398-56.923 79.066-56.923 79.066s.817 132.029-.09 198.843c6.641 66.807 58.198 77.483 58.198 77.483s20.559.392 35.58.392c1.584 4.353 2.769 25.32 26.089 25.32s26.096-25.32 26.096-25.32 170.778-.817 185.007-.817c.817 7.122 4.353 26.489 27.673 26.097 23.32-.392 24.905-27.674 24.905-27.674s7.906-.816 31.626 0c55.347-10.283 58.508-75.146 58.508-75.146s-.743-132.771.049-199.178zm-47.62 211.365c0 10.48-8.298 18.974-18.533 18.974h-336.63c-10.234 0-18.533-8.494-18.533-18.974V278.371c0-10.48 8.299-18.974 18.533-18.974h336.63c10.235 0 18.533 8.495 18.533 18.974V501.36z" fill="#fff" fill-rule="nonzero"/><path d="M224.843 341.363l98.825-18.974 7.515 37.165-98.041 18.974-8.299-37.165zM532.395 341.363l-98.826-18.974-7.514 37.165 98.04 18.974 8.3-37.165zM331.183 433.466s21.743 39.142 45.855-12.644c23.328 50.601 49.009 13.412 49.009 13.412l14.62 9.516s-27.273 43.879-63.245 10.667c-30.442 33.212-62.46-10.618-62.46-10.618l16.22-10.333z" fill="#fff" fill-rule="nonzero"/></svg>
