<svg viewBox="0 0 32 32" xmlns="http://www.w3.org/2000/svg" fill-rule="evenodd" clip-rule="evenodd" stroke-linejoin="round" stroke-miterlimit="2"><path fill="#c71d23" d="M-.039-.04h32.063v32.063H-.039z"/><path d="M24.099 14.223h-9.087a.79.79 0 00-.79.79v1.975a.789.789 0 00.789.79h5.532a.79.79 0 01.79.79v.395a2.37 2.37 0 01-2.37 2.37h-7.507a.79.79 0 01-.79-.79v-7.506a2.37 2.37 0 012.37-2.37h11.061a.791.791 0 00.79-.79l.001-1.975a.788.788 0 00-.789-.791v.001H13.037a5.926 5.926 0 00-5.926 5.925v11.062c0 .436.354.79.79.79h11.655a5.333 5.333 0 005.333-5.333v-4.543a.79.79 0 00-.79-.79z" fill="#fff"/></svg>
