<svg viewBox="0 0 76 76" xmlns="http://www.w3.org/2000/svg" fill-rule="evenodd" clip-rule="evenodd" stroke-linejoin="round" stroke-miterlimit="2"><path fill="none" d="M0 0h75.135v75.135H0z"/><path d="M16.163 56.16h7.886V37.01l-11.265-8.45v24.22c0 1.87 1.515 3.38 3.38 3.38" fill="#4285f4" fill-rule="nonzero"/><path d="M51.086 56.16h7.886c1.87 0 3.38-1.515 3.38-3.38V28.56l-11.266 8.45" fill="#34a853" fill-rule="nonzero"/><path d="M51.086 22.364V37.01l11.265-8.449v-4.506c0-4.18-4.77-6.562-8.11-4.056" fill="#fbbc04" fill-rule="nonzero"/><path d="M24.049 37.01V22.363l13.519 10.139 13.518-10.139V37.01L37.568 47.15" fill="#ea4335" fill-rule="nonzero"/><path d="M12.784 24.054v4.506l11.265 8.45V22.363l-3.154-2.366c-3.346-2.506-8.111-.124-8.111 4.056" fill="#c5221f" fill-rule="nonzero"/></svg>
