<svg viewBox="0 0 24 24" xmlns="http://www.w3.org/2000/svg" fill-rule="evenodd" clip-rule="evenodd" stroke-linejoin="round" stroke-miterlimit="2"><path d="M19.236 12.697c0-.535-.406-.97-.908-.97h-7.252c-.502 0-.908.435-.908.97 0 .535.405.97.908.97h7.252c.502 0 .908-.435.908-.97z" fill="#b3b1b0" fill-rule="nonzero"/><path d="M5.891 15.458L9 18.601c.7.705 1.67 1.046 2.74 1.046 1.07 0 2.04-.369 2.742-1.076l1.865-1.9c.368-.371.355-.984-.028-1.37-.383-.385-.99-.398-1.358-.028l-1.928 1.879c-.333.336-.794.477-1.304.477s-.97-.14-1.304-.477l-3.097-3.144c-.334-.337-.502-.83-.502-1.343 0-.514.168-.978.502-1.314l3.088-3.157c.333-.336.804-.464 1.313-.464.508 0 .97.14 1.303.477l1.929 1.878c.367.37.975.358 1.358-.028.383-.386.396-1 .028-1.37l-1.865-1.9a3.599 3.599 0 00-1.724-.958l-.024-.005 1.763-1.804c.37-.37.356-.984-.026-1.37-.383-.385-.992-.397-1.36-.027L5.89 9.901c-.7.708-1.068 1.685-1.068 2.764 0 1.08.367 2.087 1.068 2.793z" fill="#e7a41f" fill-rule="nonzero"/><path d="M9.23 18.793a1.52 1.52 0 01-.341-.26c-.957-.961-1.917-1.917-2.871-2.88-1.434-1.448-1.66-3.559-.567-5.276.17-.266.381-.5.605-.723l6.934-6.95c.45-.45 1.08-.47 1.499-.048.403.406.38 1.049-.057 1.49L12.768 5.82c-.03.087-.1.144-.162.206-.622.632-1.26 1.246-1.874 1.887-.08.084-.189.134-.268.22-1.026 1.025-2.063 2.04-3.074 3.078-.818.841-.79 2.118.049 2.974.942.963 1.901 1.91 2.854 2.864l.147.143c.337.218.342.9.132 1.204-.231.335-.533.54-.96.525a.818.818 0 01-.382-.13z" fill="#070706" fill-rule="nonzero"/></svg>
