<svg viewBox="0 0 24 24" xmlns="http://www.w3.org/2000/svg" fill-rule="evenodd" clip-rule="evenodd" stroke-linejoin="round" stroke-miterlimit="2"><g transform="matrix(.94215 0 0 .94215 -26.285 -12.132)"><path fill="none" d="M27.899 12.877h25.474v25.474H27.899z"/><clipPath id="a"><path d="M27.899 12.877h25.474v25.474H27.899z"/></clipPath><g clip-path="url(#a)"><path d="M51.515 12.867H29.757c-1.01 0-1.844.819-1.858 1.823v21.846a1.862 1.862 0 001.858 1.823h21.758c1.01 0 1.843-.819 1.858-1.823V14.69a1.862 1.862 0 00-1.858-1.823zm-15.89 21.337h-3.844V22.733h3.844v11.47zm-1.922-13.077a2.003 2.003 0 01-1.999-1.989c0-1.09.903-1.988 2-1.988a2.016 2.016 0 012.239 1.988 2.016 2.016 0 01-2.24 1.989zM49.49 34.204h-3.844v-6.156c0-1.543-.551-2.55-1.948-2.55a2.119 2.119 0 00-1.973 1.39c-.1.3-.144.615-.128.93v6.373h-3.844V22.72h3.844v1.619a3.855 3.855 0 013.472-1.912c2.563 0 4.421 1.644 4.421 5.174v6.603z" fill="#1569bf" fill-rule="nonzero"/><path fill="#1569bf" d="M27.742 12.74h2.865v3.034h-2.865zM50.661 12.678h2.866v3.035h-2.866zM27.648 35.548h2.866v3.035h-2.866zM50.743 35.463h2.866v3.034h-2.866z"/></g></g></svg>
