<svg viewBox="0 0 240 240" xmlns="http://www.w3.org/2000/svg" fill-rule="evenodd" clip-rule="evenodd" stroke-linejoin="round" stroke-miterlimit="2"><path fill="none" d="M.416-.215h239.45v239.45H.416z"/><clipPath id="a"><path d="M.416-.215h239.45v239.45H.416z"/></clipPath><g clip-path="url(#a)"><path d="M167.144 77.252c-2.373-3.993-7.167-5.185-10.614-3.91-7.59 2.797-13.78 10.71-19.85 23.975l41.801 17.608c-2.363-14.374-5.63-27.587-11.337-37.673z" fill="#92a2d5"/><g transform="matrix(.72595 0 0 .72595 35.309 65.627)"><clipPath id="b"><path d="M181.604 16.013c-3.269-5.501-9.873-7.143-14.621-5.385C156.528 14.48 148 25.38 139.64 43.652l57.581 24.255c-3.255-19.8-7.757-38-15.617-51.894z"/></clipPath><g clip-path="url(#b)"><path d="M198.639 70.426C213.244 53.741 188.504.802 166.466 7.428c-12.989 3.682-21.185 19.164-26.591 35.451l13.16 4.273c.905.366 2.387.588 2.872-.796 3.913-12.572 9.713-21.63 17.622-26.762 3.245-.884 5.659 1.161 7.368 5.691 4.035 12.887 5.212 20.511 5.507 26.514l1.014 14.976 11.221 3.651z" fill="#341e44"/></g></g><path d="M98.967 98.554C86.272 81.89 74.806 74.386 66.253 79.153c-10.261 10.875-10.53 32.278-7.903 55.01l20.674-20.033L94.4 101.923c2.553.431 4.403-1.145 4.567-3.37z" fill="#92a2d5"/><g transform="matrix(.72595 0 0 .72595 35.309 65.627)"><clipPath id="c"><path d="M87.689 45.356C70.202 22.402 54.407 12.065 42.626 18.631 28.491 33.612 28.121 63.094 31.739 94.408l28.479-27.595 21.18-16.815c3.517.593 6.065-1.578 6.291-4.642z"/></clipPath><g clip-path="url(#c)"><path d="M83.565 25.15L41.247 12.107C25.504 40.349 17.709 66.781 29.219 98.093l15.845-18.124c.288-17.609 1.062-33.178 2.428-46.262 1.079-6.176 3.597-8.525 7.751-6.52 6.799 5.276 12.897 11.826 21.068 21.029 1.723 1.318 4.538 2.016 6.891 1.802 4.193-.735 4.321-2.841 4.413-4.506l-4.05-20.362z" fill="#311746"/></g></g><g><path d="M178.433 114.546C126.764 82.15 87.054 89.706 58.36 134.069c1.48 43.147 1.12 95.267 9.923 108.143l126.587-2.098c-7.201-14.148-4.455-35.485-16.437-125.568z" fill="#92a2d5"/></g><g><path d="M209.212 170.716a147.013 147.013 0 00-18.628-5.634c-7.042-1.626-13.736-2.574-20.923-2.83-.343.196-.192.51.532.627 9.276.521 18.588 1.631 39.02 7.837z" fill="#83889e"/><path d="M210.064 155.116a199.642 199.642 0 00-22.49-3.206c-8.38-.706-16.199-.776-24.41-.086-.34.241-.093.537.757.56 10.642-.7 21.47-.81 46.143 2.732z" fill="#7882a5"/><path d="M210.905 135.586a163.653 163.653 0 00-20.466-1.83c-7.618-.195-14.72.207-22.165 1.387-.307.26-.078.54.694.51 9.654-1.336 19.484-2.099 41.937-.067z" fill="#767e95"/><path d="M210.37 124.703a163.653 163.653 0 00-20.532.786c-7.582.774-14.574 2.074-21.81 4.19-.27.298-.008.545.754.418 9.406-2.551 19.06-4.557 41.588-5.394z" fill="#6f779b"/><path d="M208.788 111.697c-17.419 1.483-34.794 4.14-43.481 8.95-.225.64.68.95 1.187.705 7.897-4.585 19.973-6.492 42.294-9.655z" fill="#555972"/><g><path d="M88.3 167.775c-18.115 5.054-35.371 11.088-51.966 18.372 17.52-6.494 34.79-12.175 51.751-16.862 1.843-1.1.844-1.547.216-1.51z" fill="#424d7b"/><path d="M86.966 155.35c-18.443 3.053-36.105 7.07-53.206 12.28 17.962-4.413 35.61-8.107 52.874-10.924 1.922-.843.96-1.336.332-1.355z" fill="#394a7e"/><path d="M79.58 146.067c-17.466 1.82-34.223 4.51-50.485 8.26 17.05-3.02 33.785-5.432 50.133-7.1 1.835-.645.943-1.115.351-1.16z" fill="#717da5"/><path d="M75.82 136.349c-15.18.216-29.698 1.654-43.731 4.237 14.714-1.885 29.218-3.148 43.481-3.549 1.573-.36.77-.653.25-.688z" fill="#7983a6"/></g></g><g><path d="M146.42 102.286c-21.423-7.346-44.134-4.095-59.982 6.459-13.866 10.277-22.912 24.202-16.421 42.237 9.446 13.872 28.037 22.108 64.39 19.396 18.28-3.756 36.488-16.47 41.251-30.64 2.507-14.712-4.885-28.442-29.238-37.452z" fill="#443061"/><path d="M101.579 113.97c9.04 0 16.752 5.196 17.412 13.874.76 9.976-8.864 17.898-18.375 17.13-9.615-.774-16.541-6.906-15.731-15.643.801-8.658 7.654-15.361 16.694-15.361z" fill="#1c092a"/><path d="M150.705 106.652c7.909 0 15.915 5.185 16.488 12.674.62 8.114-5.946 15.36-14.327 14.92-7.903-.414-16.395-7.344-16.395-14.881s6.326-12.713 14.234-12.713z" fill="#260f31"/><path d="M140.922 123.822c-9.302-.042-18.313 1.39-24.396 3.917.241.256.327.8.593 1.05 3.482 3.289 7.478 5.153 12.693 7.955 1.121.615 1.585 1.805 1.696 3.3l-.025 30.313c-.801 3.692-.763 8.568-.57 10.48 2.067-3.655 3.318-7.247 4.318-10.82l-.105-25.384 8.22 27.41c.781 3.043 2.192 3.969 3.775 4.311.166-1.087.112-2.157-.009-3.222l-11.072-32.906c-.518-1.47-.477-2.78.47-3.832 3.04-4.008 5.535-7.698 7.315-10.974l-2.903-1.598z" fill="#180620"/><g transform="matrix(.72595 0 0 .72595 35.309 65.627)"><clipPath id="d"><path d="M145.483 80.164c-12.814-.059-25.227 1.913-33.606 5.395.332.353.451 1.101.817 1.447 4.796 4.53 10.301 7.098 17.484 10.957 1.545.848 2.184 2.487 2.337 4.547l-.034 41.756c-1.104 5.086-1.051 11.802-.786 14.435 2.847-5.034 4.571-9.982 5.948-14.904l-.145-34.966 11.324 37.758c1.076 4.191 3.019 5.466 5.2 5.938.229-1.498.154-2.972-.012-4.439l-15.253-45.328c-.713-2.025-.656-3.83.649-5.279 4.187-5.52 7.624-10.604 10.076-15.116l-3.999-2.201z"/></clipPath><g clip-path="url(#d)"><path d="M139.744 143.221c-3.324 1.565-6.692 1.483-10.06.757l-.194 14.37 4.787 2.1 5.467-17.227z" fill="#52619a"/><path d="M152.158 140.863c-.423.19 1.147 6.37.226 6.526-1.219.206-4.633-5.408-5.312-6.345l-3.285 15.252h14.191l-5.82-15.433z" fill="#526496"/></g></g><path d="M102.591 110.722c9.29-.25 15.78 6 15.863 14.298.078 7.74-6.85 13.682-15.863 14.298-8.99.616-16.418-5.655-15.864-14.298.509-7.943 7.392-14.07 15.864-14.298z" fill="#e2d4c9"/><g transform="matrix(.95198 0 0 1.13325 9.912 20.992)"><clipPath id="e"><path d="M97.354 79.179c9.758-.221 16.575 5.295 16.663 12.617.082 6.83-7.195 12.073-16.663 12.617-9.444.543-17.246-4.99-16.664-12.617.534-7.009 7.765-12.416 16.664-12.617z"/></clipPath><g clip-path="url(#e)"><path d="M100.635 85.899c3.031.684 5.522 2.814 5.522 5.522s-2.269 4.657-5.427 4.657c-3.156 0-6.255-2.474-6.65-5.164-.509-3.46 2.83-5.856 6.555-5.015z" fill="#1b0a2e"/></g></g><g><path d="M150.229 102.67c8.35.48 15.164 6.656 14.828 13.991-.344 7.526-6.05 12.868-14.255 12.425-7.564-.409-14.426-6.424-14.954-13.32-.589-7.677 6.33-13.559 14.38-13.096z" fill="#f1e1d4"/><g transform="matrix(1.01762 0 0 .99299 -12.557 36.473)"><clipPath id="f"><path d="M159.967 66.664c8.206.483 14.902 6.703 14.572 14.09-.338 7.579-5.946 12.959-14.008 12.513-7.433-.412-14.177-6.47-14.696-13.414-.578-7.732 6.22-13.655 14.132-13.189z"/></clipPath><g clip-path="url(#f)"><path d="M159.514 73.166c2.421.523 4.53 2.454 4.794 5.262.268 2.893-.8 4.91-3.459 5.19-2.79.295-5.427-1.092-6.473-3.976-1.222-3.37.932-7.383 5.138-6.476z" fill="#1a0d21"/></g></g></g></g></g></svg>
