<svg xmlns="http://www.w3.org/2000/svg" xml:space="preserve" style="fill-rule:evenodd;clip-rule:evenodd;stroke-linejoin:round;stroke-miterlimit:2" viewBox="0 0 780 780"><path d="M0 0h780v780H0z" style="fill:#1da1f2"/><path d="M590 265.941c-14.705 6.533-30.532 10.933-47.13 12.92 16.945-10.16 29.958-26.238 36.077-45.397-15.839 9.412-33.424 16.225-52.102 19.919-14.973-15.945-36.318-25.919-59.903-25.919-45.317 0-82.062 36.745-82.062 82.062 0 6.425.733 12.692 2.133 18.705-68.208-3.413-128.671-36.092-169.148-85.742-7.067 12.12-11.107 26.212-11.107 41.252 0 28.465 14.467 53.583 36.505 68.302-13.466-.427-26.105-4.12-37.185-10.267v1.027c0 39.771 28.305 72.928 65.824 80.488a82.468 82.468 0 0 1-21.612 2.88c-5.293 0-10.44-.52-15.453-1.48 10.44 32.598 40.758 56.33 76.661 56.997-28.078 21.998-63.461 35.13-101.913 35.13-6.64 0-13.172-.387-19.585-1.16 36.318 23.28 79.448 36.878 125.792 36.878 150.936 0 233.478-125.045 233.478-233.478 0-3.56-.067-7.105-.24-10.612A167.15 167.15 0 0 0 590 265.941Z" style="fill:#fff"/></svg>
